<?xml version="1.0" standalone="no"?>
<!DOCTYPE svg PUBLIC "-//W3C//DTD SVG 20010904//EN"
 "http://www.w3.org/TR/2001/REC-SVG-20010904/DTD/svg10.dtd">
<svg version="1.0" xmlns="http://www.w3.org/2000/svg"
 width="512.000000pt" height="512.000000pt" viewBox="0 0 512.000000 512.000000"
 preserveAspectRatio="xMidYMid meet">
<metadata>
Created by potrace 1.14, written by Peter Selinger 2001-2017
</metadata>
<g transform="translate(0.000000,512.000000) scale(0.100000,-0.100000)"
fill="#000000" stroke="none">
<path d="M594 5109 c-11 -6 -28 -23 -37 -39 -16 -26 -17 -88 -17 -693 l1 -664
32 -31 32 -31 342 -1 c388 -1 402 2 423 64 17 51 5 91 -34 116 -32 19 -49 20
-315 20 l-281 0 2 218 3 217 180 1 c237 2 222 0 256 33 51 51 30 135 -38 158
-16 5 -112 9 -215 8 l-188 0 0 217 0 218 280 0 c179 0 288 4 303 11 28 13 57
58 57 89 0 34 -31 78 -63 90 -40 13 -694 12 -723 -1z"/>
<path d="M2230 5113 c-231 -35 -444 -190 -545 -397 -61 -123 -78 -197 -78
-331 0 -360 247 -656 603 -724 30 -5 102 -8 160 -6 119 4 223 33 325 90 59 33
150 105 170 135 35 53 12 127 -45 146 -47 16 -71 8 -131 -42 -67 -56 -176
-109 -249 -123 -81 -14 -205 -6 -274 18 -170 60 -298 197 -347 372 -15 56 -15
210 0 269 23 83 74 172 137 236 105 106 209 152 356 158 147 6 264 -33 378
-128 54 -45 64 -50 107 -48 54 2 96 61 85 119 -13 69 -206 197 -359 239 -54
14 -238 25 -293 17z"/>
<path d="M3694 5105 c-135 -29 -260 -96 -358 -190 -71 -68 -102 -108 -144
-186 -114 -212 -114 -476 1 -689 94 -174 245 -297 442 -360 80 -26 261 -36
335 -19 25 6 52 12 60 14 36 8 137 49 162 66 14 11 29 19 34 19 12 0 96 70
146 122 234 244 268 609 83 903 -40 63 -136 162 -198 204 -63 43 -158 86 -232
106 -79 22 -253 27 -331 10z m254 -199 c241 -50 419 -261 426 -504 4 -153 -62
-310 -171 -405 -20 -18 -42 -37 -49 -44 -24 -24 -132 -73 -195 -88 -179 -42
-374 15 -496 146 -84 90 -114 141 -140 242 -98 379 240 733 625 653z"/>
<path d="M2520 3402 c-19 -9 -40 -28 -47 -42 -17 -33 -16 -337 0 -371 7 -13
29 -32 50 -42 36 -18 38 -18 74 0 59 29 64 46 61 240 -3 169 -3 173 -28 197
-35 33 -69 39 -110 18z"/>
<path d="M1979 3141 c-22 -23 -29 -39 -29 -70 0 -38 7 -47 114 -156 145 -148
172 -163 236 -130 32 17 55 72 46 111 -4 14 -63 82 -131 150 -119 119 -126
124 -165 124 -33 0 -48 -6 -71 -29z"/>
<path d="M3035 3160 c-11 -4 -54 -42 -95 -83 -162 -162 -162 -163 -166 -206
-2 -34 2 -46 28 -71 23 -24 38 -30 70 -30 40 0 47 6 170 128 121 121 128 131
128 168 -1 74 -69 122 -135 94z"/>
<path d="M597 3044 c-1 -1 -42 -5 -92 -9 -98 -7 -321 -49 -372 -70 -50 -21
-67 -65 -99 -255 -24 -139 -29 -206 -28 -375 0 -147 9 -298 18 -314 2 -3 7
-30 10 -60 11 -96 73 -316 125 -451 22 -54 131 -280 141 -290 3 -3 23 -34 45
-70 177 -291 472 -592 773 -786 45 -30 85 -54 88 -54 2 0 22 -11 43 -25 52
-35 257 -127 366 -164 115 -39 148 -40 186 -2 53 54 32 137 -43 165 -24 8 -88
32 -143 52 -183 66 -374 175 -565 323 -79 61 -263 237 -337 322 -55 63 -168
221 -217 303 -42 69 -136 255 -136 269 0 3 166 5 369 5 l369 1 52 -62 c94
-111 232 -250 335 -337 58 -48 165 -130 170 -130 4 0 21 -11 38 -24 18 -14 75
-49 127 -78 92 -52 125 -69 213 -108 l42 -19 1 -118 c2 -174 12 -263 46 -428
33 -160 45 -174 172 -200 44 -9 82 -17 85 -19 3 -2 37 -7 76 -11 38 -4 74 -9
79 -12 15 -10 387 -11 461 -2 39 5 90 11 115 14 221 28 540 137 753 256 82 46
241 149 286 184 337 271 534 501 713 835 101 188 200 478 224 655 3 28 7 52 9
55 10 17 19 191 19 350 -1 160 -5 219 -28 350 -3 14 -7 42 -10 64 -4 21 -8 42
-11 46 -2 3 -7 21 -10 40 -17 98 -45 113 -285 155 -189 33 -511 38 -650 10
-14 -3 -45 -8 -70 -11 -115 -15 -369 -88 -515 -149 -67 -28 -239 -116 -256
-131 -8 -8 -19 -14 -23 -14 -10 0 -144 -90 -221 -148 -162 -123 -365 -326
-489 -490 -37 -49 -50 -60 -59 -49 -7 6 -41 47 -76 90 -59 72 -63 80 -51 102
32 59 11 99 -105 204 -269 244 -586 426 -900 518 -74 21 -195 51 -235 58 -19
3 -42 8 -50 10 -15 4 -53 9 -175 21 -66 6 -293 13 -298 8z m50 -237 c0 -54 14
-210 23 -256 l8 -43 -154 153 -153 154 32 7 c18 4 70 10 117 13 47 4 86 8 88
10 2 2 11 1 21 -2 12 -3 18 -14 18 -36z m160 -747 c30 -70 102 -215 135 -267
l20 -33 -21 -1 c-12 0 -147 0 -301 0 -154 0 -298 0 -319 0 l-39 1 -26 108
c-14 59 -28 130 -31 157 -3 28 -8 61 -11 75 -12 51 -12 386 0 468 7 45 11 82
9 82 -2 0 -1 5 3 11 4 7 116 -98 280 -262 252 -252 276 -279 301 -339z"/>
<path d="M968 1101 c-28 -24 -33 -36 -32 -71 2 -75 70 -117 137 -85 76 36 76
135 0 174 -36 18 -71 13 -105 -18z"/>
<path d="M1237 897 c-36 -21 -61 -75 -48 -108 17 -42 81 -93 213 -169 148 -86
403 -190 463 -190 82 1 123 111 62 167 -12 12 -62 35 -112 52 -118 41 -280
120 -380 185 -135 89 -147 92 -198 63z"/>
</g>
</svg>
